# xmcd CD database file
#
# Track frame offsets:
#	150
#	29542
#	45379
#	65679
#	92224
#	106105
#	127646
#	146417
#	176225
#	194559
#	220727
#
# Disc length: 3611 seconds
#
# Revision: 0
# Processed by: cddbd v1.5.2PL0 Copyright (c) Steve Scherf et al.
# Submitted via: CDex 1.51
#
DISCID=9a0e190b
DTITLE=Various Artist - Cafe Latino - jazz time...
DYEAR=2006
DGENRE=Jazz
TTITLE0=Bobby Carcasses
TTITLE1=Marcos Ariel and J.P.Zanella
TTITLE2=Adriana Godoy
TTITLE3=David Alvarez and Chucho Valdez
TTITLE4=Felix Baloy
TTITLE5=Jony Alf
TTITLE6=Yusa and Haydee Milancs
TTITLE7=ChuchoValdez
TTITLE8=Son 14
TTITLE9=Chucho Valdez
TTITLE10=Johnny Alf
EXTD=YEAR: 2006
EXTT0=
EXTT1=
EXTT2=
EXTT3=
EXTT4=
EXTT5=
EXTT6=
EXTT7=
EXTT8=
EXTT9=
EXTT10=
PLAYORDER=
